<?xml version="1.0" encoding="utf-8"?>
<!-- Generator: Adobe Illustrator 16.0.0, SVG Export Plug-In . SVG Version: 6.00 Build 0)  -->
<!DOCTYPE svg PUBLIC "-//W3C//DTD SVG 1.1 Basic//EN" "http://www.w3.org/Graphics/SVG/1.1/DTD/svg11-basic.dtd">
<svg version="1.1" baseProfile="basic" id="Layer_1"
	 xmlns="http://www.w3.org/2000/svg" xmlns:xlink="http://www.w3.org/1999/xlink" x="0px" y="0px" width="150px" height="25px"
	 viewBox="0 0 150 25" xml:space="preserve">
<g>
	<g id="Owl">
		<g>
			<path fill="none" stroke="#5F6C70" stroke-width="7.6162" d="M16.248,1.882"/>
			<path fill="#FFFFFF" d="M14.329,12.168c1.145,3.101,4.595,4.691,7.698,3.547c3.101-1.15,4.692-4.597,3.543-7.7
				c-1.146-3.107-4.591-4.692-7.698-3.546C14.767,5.618,13.182,9.063,14.329,12.168z"/>
			<circle fill="#FFFFFF" cx="6.667" cy="10.069" r="5.992"/>
			<path fill="#BE3538" d="M7.688,10.005c0,0.611-0.496,1.111-1.107,1.111c-0.613,0-1.108-0.5-1.108-1.111
				c0-0.61,0.495-1.104,1.108-1.104C7.192,8.901,7.688,9.396,7.688,10.005z"/>
			<path fill="#589442" d="M21.042,10.005c0,0.611-0.494,1.111-1.105,1.111c-0.615,0-1.108-0.5-1.108-1.111
				c0-0.61,0.493-1.104,1.108-1.104C20.548,8.901,21.042,9.396,21.042,10.005z"/>
			<g>
				<path d="M3.289,10.005c0,1.817,1.478,3.292,3.294,3.292c1.812,0,3.289-1.474,3.289-3.292c0-1.812-1.478-3.288-3.289-3.288
					C4.767,6.719,3.289,8.193,3.289,10.005z M4.424,10.005c0-1.188,0.971-2.155,2.161-2.155c1.188,0,2.154,0.968,2.154,2.155
					c0,1.192-0.966,2.16-2.154,2.16C5.395,12.167,4.424,11.199,4.424,10.005z"/>
			</g>
			<g>
				<path d="M16.644,10.005c0,1.817,1.476,3.292,3.292,3.292c1.813,0,3.288-1.474,3.288-3.292c0-1.812-1.475-3.288-3.288-3.288
					C18.121,6.719,16.644,8.193,16.644,10.005z M17.779,10.005c0-1.188,0.968-2.155,2.159-2.155c1.188,0,2.153,0.968,2.153,2.155
					c0,1.192-0.965,2.16-2.153,2.16C18.746,12.167,17.779,11.199,17.779,10.005z"/>
			</g>
			<g>
				<path fill="none" d="M15.517,13.011c0.54,0.823,1.29,1.489,2.206,1.911c1.291,0.597,2.737,0.652,4.07,0.162
					c2.752-1.02,4.166-4.083,3.149-6.833c-1.017-2.752-4.081-4.164-6.834-3.149c-1.333,0.492-2.395,1.475-2.991,2.766
					c-0.398,0.864-0.532,1.799-0.443,2.722"/>
				<g>
					<path fill="#FFD881" d="M17.641,3.838c0.694-0.256,1.404-0.38,2.105-0.399c-1.91-0.856-4.072-1.289-6.467-1.289
						c-2.377,0-4.57,0.444-6.479,1.259c3.455,0.069,6.264,2.775,6.506,6.185c0.059-0.783,0.25-1.557,0.588-2.29
						C14.639,5.685,15.971,4.455,17.641,3.838z"/>
				</g>
			</g>
			<path d="M25.307,6.132c0.312-1.337,1.304-2.676,1.304-2.676l-4.449-0.003c-2.495-1.611-5.524-2.465-8.881-2.465
				c-3.484,0-6.63,0.875-9.111,2.497L0,3.488c0,0,0.98,1.324,1.297,2.652c-0.811,1.102-1.293,2.458-1.293,3.929
				c0,3.673,2.99,6.663,6.665,6.663c2.101,0,3.974-0.979,5.196-2.501l1.419,2.125l1.43-2.143c0.643,0.818,1.473,1.482,2.446,1.932
				c1.618,0.744,3.431,0.818,5.1,0.201c3.448-1.275,5.218-5.118,3.943-8.563C25.979,7.177,25.673,6.626,25.307,6.132z M13.28,2.151
				c2.395,0,4.557,0.433,6.467,1.289c-0.702,0.019-1.411,0.144-2.105,0.399c-1.67,0.616-3.002,1.846-3.745,3.465
				c-0.338,0.733-0.529,1.507-0.588,2.29c-0.244-3.409-3.053-6.115-6.508-6.185C8.709,2.594,10.902,2.151,13.28,2.151z
				 M11.072,13.047c-0.957,1.41-2.575,2.341-4.405,2.341c-2.934,0-5.321-2.389-5.321-5.319c0-2.935,2.388-5.32,5.321-5.32
				s5.32,2.385,5.32,5.32c0,0.179-0.035,0.348-0.053,0.521C11.845,11.491,11.556,12.333,11.072,13.047z M21.793,15.084
				c-1.333,0.492-2.779,0.436-4.07-0.16c-0.916-0.424-1.666-1.088-2.206-1.913c-0.22-0.335-0.414-0.69-0.556-1.076
				c-0.162-0.438-0.243-0.89-0.287-1.345c-0.089-0.923,0.045-1.858,0.443-2.722c0.596-1.291,1.658-2.274,2.991-2.766
				c2.753-1.015,5.817,0.397,6.834,3.149C25.958,11.001,24.545,14.065,21.793,15.084z"/>
		</g>
	</g>
	<g id="Korea">
		<g>
			<g>
				<path fill="#589442" d="M95.578,2.054c0,0.71,0.578,1.286,1.287,1.286c0.713,0,1.287-0.576,1.287-1.286
					c0-0.709-0.576-1.288-1.287-1.288C96.156,0.765,95.578,1.344,95.578,2.054z"/>
				<g>
					<path d="M34.471,1.962L32.52,2.637c0,0,0,2.336,0,2.545c-0.204,0-2.162,0-2.162,0v1.707c0,0,1.897,0,2.103,0
						c0,0.221,0,5.479,0,5.479c0,2.606,0.887,3.671,3.067,3.671c0.553,0,1.081-0.068,1.611-0.211l0.086-0.023l-0.024-1.768
						l-0.149,0.055c-0.429,0.15-0.764,0.222-1.023,0.222c-1.024,0-1.404-0.577-1.404-2.131c0,0,0-5.075,0-5.293
						c0.208,0,2.495,0,2.495,0V5.182c0,0-2.286,0-2.495,0c0-0.211,0-3.269,0-3.269L34.471,1.962z"/>
					<path d="M41.215,6.91c0-0.6,0-1.729,0-1.729h-1.979v10.671H41.4v-5.357c0-2.245,0.943-3.482,2.653-3.482
						c0.248,0,0.488,0.037,0.781,0.12l0.14,0.04l0.071-2.107l-0.931-0.071C42.86,4.994,41.847,5.672,41.215,6.91z"/>
					<g>
						<path d="M56.657,4.931c-1.485,0-2.733,0.703-3.566,1.982c0-0.511,0-1.733,0-1.733h-1.978v15.018h2.165c0,0,0-5.244,0-5.822
							c0.781,1.061,1.901,1.645,3.295,1.645c2.735,0,4.502-2.244,4.502-5.71C61.076,7.092,59.299,4.931,56.657,4.931z
							 M56.053,14.271c-1.712,0-2.775-1.463-2.775-3.816c0-2.268,1.122-3.735,2.858-3.735c1.673,0,2.673,1.389,2.673,3.713
							C58.809,12.8,57.752,14.271,56.053,14.271z"/>
					</g>
				</g>
				<g>
					<g>
						<path fill="#589442" d="M67.4,4.931c-1.323,0-2.482,0.25-3.545,0.76l-0.066,0.033l0.023,1.846l0.17-0.095
							c1.016-0.569,1.978-0.859,2.854-0.859c1.567,0,2.467,0.899,2.467,2.468c0,0,0,0.045,0,0.091c-0.191,0-1.238,0-1.238,0
							c-3.562,0-5.522,1.29-5.522,3.63c0,1.88,1.415,3.193,3.44,3.193c1.49,0,2.643-0.586,3.465-1.688c0,0.427,0,1.541,0,1.541
							h1.955V9.393C71.402,6.434,70.056,4.931,67.4,4.931z M69.3,11.347c0,1.838-1.106,3.026-2.817,3.026
							c-1.048,0-1.779-0.688-1.779-1.673c0-1.295,1.238-2.006,3.485-2.006c0,0,0.926,0,1.113,0C69.3,10.859,69.3,11.347,69.3,11.347
							z"/>
					</g>
					<g>
						<path fill="#589442" d="M80.592,0.085c0,0,0,5.949,0,6.543c-0.798-1.109-1.908-1.697-3.334-1.697
							c-2.647,0-4.426,2.179-4.426,5.419c0,3.338,1.804,5.668,4.382,5.668c1.527,0,2.718-0.676,3.544-1.991c0,0.532,0,1.824,0,1.824
							h2V0.085H80.592z M77.775,14.228c-1.649,0-2.673-1.438-2.673-3.753c0-2.318,1.033-3.816,2.634-3.816
							c1.787,0,2.855,1.425,2.855,3.816C80.592,12.758,79.49,14.228,77.775,14.228z"/>
					</g>
					<path fill="#589442" d="M92.426,5.181l-3.068,6.161l-2.836-6.161h-2.439l5.23,10.671l5.371-10.671H92.426z"/>
					<path fill="#589442" d="M97.834,5.181h-2.049v10.671h2.166V5.181H97.834z"/>
					<path fill="#589442" d="M100.488,7.917c0,1.501,1.031,2.291,2.936,3.223c1.201,0.59,1.828,0.937,1.828,1.768
						c0,0.852-0.77,1.405-1.967,1.405c-0.846,0-1.785-0.238-2.715-0.695l-0.158-0.078l-0.07,1.881l0.072,0.027
						c0.889,0.354,1.824,0.528,2.789,0.528c2.646,0,4.355-1.261,4.355-3.214c0-1.627-1.082-2.452-2.957-3.327
						c-1.373-0.645-1.949-1.022-1.949-1.705c0-0.649,0.641-1.071,1.631-1.071c0.895,0,1.768,0.199,2.594,0.593l0.156,0.072
						l0.094-1.841l-0.086-0.025c-0.896-0.266-1.781-0.4-2.633-0.4C102.064,5.056,100.488,6.206,100.488,7.917z"/>
					<g>
						<path fill="#589442" d="M114.309,4.931c-3.252,0-5.271,2.14-5.271,5.585c0,3.445,2.021,5.583,5.271,5.583
							c3.266,0,5.295-2.14,5.295-5.583C119.604,7.072,117.574,4.931,114.309,4.931z M114.328,14.332
							c-1.797,0-3.004-1.542-3.004-3.837c0-2.307,1.207-3.856,3.004-3.856c1.826,0,3.006,1.514,3.006,3.856
							C117.334,12.826,116.156,14.332,114.328,14.332z"/>
					</g>
					<path fill="#589442" d="M123.596,6.91c0-0.6,0-1.729,0-1.729h-1.979v10.671h2.164v-5.357c0-2.245,0.939-3.482,2.65-3.482
						c0.248,0,0.488,0.037,0.775,0.12l0.145,0.04l0.068-2.107l-0.928-0.071C125.24,4.994,124.229,5.672,123.596,6.91z"/>
				</g>
				<path d="M48.901,5.181h-2.048v10.671h2.164V5.181H48.901z"/>
				<path d="M46.643,2.054c0,0.71,0.579,1.286,1.287,1.286c0.71,0,1.287-0.576,1.287-1.286c0-0.709-0.577-1.288-1.287-1.288
					C47.222,0.765,46.643,1.344,46.643,2.054z"/>
				<path fill="#ABC99F" d="M132.578,4.708c0.355,0.359,0.541,0.837,0.541,1.351c0,0.537-0.201,1.017-0.57,1.372
					c-0.385,0.366-0.863,0.561-1.361,0.561c-0.521,0-1-0.205-1.373-0.59c-0.359-0.369-0.557-0.84-0.557-1.344
					c0-0.514,0.205-1.012,0.588-1.39c0.359-0.352,0.822-0.544,1.342-0.544C131.721,4.125,132.207,4.326,132.578,4.708z
					 M130.086,4.92c-0.312,0.312-0.479,0.714-0.479,1.139c0,0.414,0.154,0.794,0.453,1.097c0.299,0.312,0.697,0.482,1.121,0.482
					c0.414,0,0.811-0.159,1.119-0.457c0.301-0.29,0.467-0.688,0.467-1.123c0-0.425-0.154-0.811-0.447-1.108
					c-0.307-0.311-0.697-0.476-1.131-0.476C130.76,4.475,130.385,4.627,130.086,4.92z M131.223,4.957
					c0.605,0,0.916,0.219,0.916,0.616c0,0.274-0.162,0.486-0.451,0.573l0.475,0.93h-0.643l-0.398-0.84h-0.168v0.84h-0.584v-2.12
					L131.223,4.957L131.223,4.957z M130.951,5.891h0.203c0.26,0,0.385-0.091,0.385-0.274c0-0.208-0.131-0.293-0.416-0.293h-0.172
					V5.891L130.951,5.891z"/>
			</g>
		</g>
		<path fill="#676768" d="M106.932,20.062c-0.016-0.123-0.186-0.215-0.449-0.343c-0.078-0.038-0.135-0.074-0.135-0.098
			c0-0.03,0.057-0.058,0.189-0.067c0.668,0.116,0.77,0.194,0.77,0.293c0,0.036-0.021,0.078-0.021,0.128v2.085l0.777-0.021v-2.26
			c-0.014-0.123-0.221-0.269-0.49-0.41c-0.061-0.033-0.129-0.074-0.129-0.104s0.057-0.054,0.217-0.054
			c0.686,0.171,0.791,0.25,0.791,0.347c0,0.046-0.02,0.093-0.02,0.155l-0.025,4.613c-0.035,0.385-0.152,0.588-0.23,0.588
			c-0.062,0-0.111-0.107-0.111-0.312V22.22l-0.779,0.019l-0.021,1.793c-0.031,0.303-0.129,0.479-0.215,0.479
			c-0.062,0-0.115-0.104-0.115-0.35v-1.564c-1.201,0.631-2.201,0.775-2.221,0.775c-0.215,0-0.312-0.297-0.318-0.457l-0.029-1.941
			c-0.012-0.143-0.143-0.184-0.391-0.286c-0.068-0.015-0.113-0.038-0.113-0.067c0-0.031,0.053-0.062,0.184-0.094
			c0.266,0,0.506,0.057,0.701,0.104h0.186c0.109,0,0.238,0,0.354-0.01c0.271-0.047,0.115-0.154,0.605-0.154
			c0.215,0.005,0.309,0.092,0.309,0.164c0,0.068-0.062,0.129-0.166,0.134c-0.369,0.021-0.908,0.038-1.188,0.038
			c-0.025,0.029-0.086-0.012-0.086,0.104v1.934c0,0.121,0.012,0.15,0.172,0.15c0.383,0,1.42-0.244,2.004-0.523v-2.403H106.932z"/>
		<path fill="#676768" d="M112.322,20.593c0.344-0.067,0.186-0.171,0.688-0.177c0.215,0.004,0.316,0.09,0.316,0.17
			c0,0.074-0.092,0.146-0.258,0.146c-0.521,0.005-1.006,0.024-1.336,0.05c0.104,0.114,0.131,0.172,0.131,0.207
			c0,0.037-0.027,0.062-0.031,0.116c0.676,0.093,0.986,0.483,0.986,0.882c0,0.471-0.424,0.891-1.141,0.891
			c-0.768,0-1.166-0.469-1.166-0.891c0-0.398,0.32-0.789,1.012-0.882c0.043-0.034,0.068-0.079,0.068-0.123
			c0-0.062-0.035-0.12-0.1-0.183c-0.209,0-0.447,0.02-0.766,0.062c-0.123,0.022-0.152,0.071-0.229,0.071
			c-0.115,0-0.584-0.253-0.584-0.321c0-0.02,0.025-0.031,0.08-0.031c0.029,0,0.074,0.006,0.123,0.012
			c0.27,0.041,0.531,0.061,0.863,0.061C111.377,20.654,111.721,20.634,112.322,20.593 M111.311,20.086
			c-0.123,0-0.51-0.275-0.51-0.348c0-0.02,0.012-0.025,0.057-0.025c0.029,0,0.078,0.006,0.141,0.017
			c0.266,0.04,0.35,0.04,1.109,0.04c0.166,0.012,0.256,0.078,0.256,0.145c0,0.072-0.104,0.148-0.336,0.154L111.311,20.086z
			 M110.881,21.961c0,0.336,0.266,0.674,0.789,0.674c0.527,0,0.791-0.338,0.791-0.674c0-0.334-0.264-0.672-0.791-0.672
			C111.146,21.289,110.881,21.627,110.881,21.961 M111.494,23.641c-0.014-0.113-0.152-0.178-0.428-0.27
			c-0.094-0.018-0.154-0.055-0.154-0.084s0.057-0.062,0.193-0.076c0.291,0,0.541,0.027,0.656,0.047
			c0.111,0.029,0.137,0.061,0.137,0.113c0,0.035-0.02,0.092-0.02,0.16v0.688c0,0.148,0.08,0.211,0.287,0.211l1.318-0.016
			c0.418-0.012,0.227-0.176,0.76-0.176c0.152,0,0.479,0,0.479,0.189c0,0.076-0.094,0.158-0.252,0.158h-2.314
			c-0.41,0-0.662-0.123-0.662-0.41V23.641L111.494,23.641z M113.701,19.76c0-0.066-0.16-0.174-0.525-0.334
			c-0.096-0.031-0.145-0.066-0.145-0.094c0-0.035,0.076-0.061,0.221-0.066c0.025,0,0.865,0.105,0.865,0.309
			c0,0.041-0.023,0.09-0.023,0.15l-0.006,1.919c0.086-0.006,0.184,0,0.275-0.01c0.279-0.056,0.152-0.173,0.623-0.173
			c0.121,0,0.352,0,0.352,0.166c0,0.076-0.066,0.15-0.18,0.15l-1.078,0.025c-0.006,1.105-0.043,1.381-0.104,1.553
			c-0.055,0.115-0.123,0.205-0.178,0.205c-0.057,0-0.092-0.07-0.098-0.271V19.76L113.701,19.76z"/>
		<path fill="#676768" d="M116.523,20.555c-0.037-0.061-0.174-0.121-0.387-0.188c-0.062-0.021-0.123-0.043-0.123-0.08
			c0-0.025,0.049-0.056,0.195-0.086c0.238,0.019,0.555,0.043,0.711,0.098c0.473,0,0.863-0.006,1.402-0.037
			c0.166-0.005,0.062-0.042,0.406-0.042c0.207,0,0.27,0.03,0.27,0.073c0,0.062-0.137,0.15-0.146,0.242l-0.254,1.446
			c0.18,0.042,0.281,0.103,0.281,0.15c0,0.071-0.215,0.071-0.344,0.071c-0.381,0-1.264,0.031-1.574,0.039
			c-0.02,0.066-0.078,0.326-0.195,0.326c-0.062,0-0.074-0.156-0.1-0.516L116.523,20.555z M117.031,20.463
			c-0.057,0.031-0.104,0.006-0.111,0.125l0.062,1.488c0.998,0,1.107,0,1.402-0.084c0.029-0.307,0.043-1.039,0.055-1.563
			L117.031,20.463z M117.789,23.461c-0.01-0.125-0.15-0.18-0.465-0.279c-0.066-0.01-0.111-0.035-0.111-0.062
			c0-0.033,0.051-0.062,0.191-0.084c0.281,0,0.539,0.02,0.662,0.041c0.104,0.023,0.127,0.055,0.127,0.105
			c0,0.041-0.018,0.096-0.018,0.17c0,0.27,0,0.598,0.008,0.822c0,0.135,0.078,0.191,0.293,0.203l1.279-0.012
			c0.461-0.031,0.236-0.174,0.793-0.174c0.193,0,0.451,0.018,0.451,0.209c0,0.066-0.055,0.135-0.166,0.135h-2.385
			c-0.404-0.006-0.637-0.105-0.656-0.416L117.789,23.461z M120.084,19.81c-0.016-0.081-0.26-0.252-0.516-0.354
			c-0.105-0.037-0.154-0.071-0.154-0.102c0-0.038,0.074-0.057,0.223-0.062c0.287,0.031,0.527,0.104,0.631,0.147
			c0.178,0.054,0.221,0.097,0.221,0.158c0,0.043-0.021,0.097-0.021,0.179l-0.008,2.568c0,0.262-0.023,0.602-0.1,0.854
			c-0.057,0.141-0.123,0.213-0.18,0.213s-0.096-0.084-0.096-0.279V19.81L120.084,19.81z"/>
		<path fill="#676768" d="M126.404,21.293c0.283-0.053,0.199-0.125,0.498-0.125c0.172,0,0.533,0,0.533,0.197
			c0,0.078-0.08,0.145-0.197,0.145h-0.029c-0.43-0.02-0.812-0.023-1.193-0.023s-0.754,0.004-1.16,0.018
			c-0.006,0.562-0.027,0.73-0.104,0.966c-0.061,0.121-0.121,0.183-0.176,0.183c-0.057,0-0.094-0.062-0.1-0.188v-0.949
			c-0.688,0.029-1.02,0.053-1.281,0.066c-0.213,0.031-0.264,0.101-0.385,0.101c-0.172,0-0.797-0.244-0.797-0.338
			c0-0.024,0.035-0.03,0.09-0.03c0.031,0,0.064,0,0.105,0.006c0.404,0.057,0.895,0.067,1.414,0.067c0.438,0,1.805-0.031,2.178-0.062
			c0.145-0.439,0.242-0.849,0.305-1.479c-0.666,0.005-1.5,0.051-2.32,0.087c-0.186,0.035-0.229,0.103-0.33,0.103
			c-0.16,0-0.693-0.256-0.693-0.317c0-0.017,0.02-0.026,0.066-0.026c0.025,0,0.057,0,0.102,0.01
			c0.336,0.041,0.678,0.053,1.076,0.053c0.441,0,1.553-0.036,1.9-0.074c0.205-0.012,0.178-0.041,0.361-0.041h0.09
			c0.223,0.012,0.287,0.048,0.287,0.098c0,0.061-0.104,0.139-0.141,0.207c-0.172,0.551-0.35,0.977-0.525,1.375L126.404,21.293z
			 M125.828,22.916c-0.557,0.018-1.688,0.086-1.961,0.094c-0.27,0.045-0.307,0.119-0.422,0.119c-0.154,0-0.656-0.199-0.656-0.311
			c0-0.025,0.023-0.039,0.08-0.039c0.02,0,0.049,0,0.078,0.008c0.254,0.045,0.604,0.062,0.971,0.062c0.59,0,1.244-0.041,1.674-0.079
			c0.15-0.023,0.172-0.055,0.309-0.055c0.049,0,0.104,0.006,0.178,0.011c0.178,0.021,0.227,0.05,0.227,0.093
			c0,0.041-0.068,0.104-0.072,0.18l-0.049,1.209c-0.031,0.402-0.154,0.609-0.246,0.609c-0.062,0-0.105-0.086-0.105-0.258v-1.645
			h-0.004V22.916z"/>
	</g>
</g>
</svg>
